<?xml version="1.0" encoding="utf-8"?>
<!-- Generator: Adobe Illustrator 24.3.0, SVG Export Plug-In . SVG Version: 6.00 Build 0)  -->
<svg version="1.1" id="Layer_1" xmlns="http://www.w3.org/2000/svg" xmlns:xlink="http://www.w3.org/1999/xlink" x="0px" y="0px"
	 viewBox="0 0 324 146" style="enable-background:new 0 0 324 146;" xml:space="preserve">
<style type="text/css">
	.st0{fill:#E9EDF8;}
	.st1{fill:#FFFFFF;}
	.st2{fill:#F0A534;}
	.st3{fill:#8591B0;}
	.st4{fill:#87064B;}
	.st5{fill:#610034;}
	.st6{fill:#CED5E3;}
	.st7{fill:#63B2BF;}
	.st8{fill:#509BA8;}
	.st9{fill:#0D6069;}
	.st10{fill:#001927;}
</style>
<g>
	<path class="st0" d="M4,0h316c2.2,0,4,1.8,4,4v87c0,2.2-1.8,4-4,4H4c-2.2,0-4-1.8-4-4V4C0,1.8,1.8,0,4,0z"/>
	<g>
		<path class="st1" d="M0,95c14.2-9.3,69.4-46.7,83.7-54.3c6.6-3.5,13.5-6.8,21-7.3c7.8-0.6,15.5,1.9,22.6,5
			c10.7,4.7,20.6,10.9,29.5,18.5c7,6,13.9,13.1,23.1,14.8c5.5,1,11.2-0.1,16.6-1.5c8.2-2.1,16.3-4.9,24.1-8.3
			c5.6-2.4,11.3-5.2,17.4-5.2c6.3-0.1,12.2,2.8,17.8,5.6L324,96L0,95z"/>
		<g>
			<path class="st2" d="M180.6,44.7l-3.3-9.7l-0.4-1.2l-21.5,6.6l-4.2,1.3l0.7,2l-13.7,4.6l0.4,1.2l-12.7,4.3
				c-0.1,2.3-0.4,4.5-0.9,6.7l0.1,0.2l15.6-5.2l0.4,1.2l4.4-1.5v-3c0-1.7,1.4-3.1,3-3.1c1.5,0,2.8,1.1,3,2.7c0,0.1,0,0.3,0,0.4v1
				l3.1-1l0.7,2l4.3-1.3l21.4-6.6L180.6,44.7z"/>
			<g>
				<path class="st3" d="M106.3,73.3L106.3,73.3C106.3,73.3,106.3,73.3,106.3,73.3c-0.2,0.3-0.3,0.6-0.5,0.8l0.3-0.3
					C106.2,73.7,106.2,73.5,106.3,73.3z"/>
				<path class="st3" d="M71.2,82c-0.1,0-0.1,0-0.2,0l0,0c0,0,0.2,0,0.6-0.1l0.3-0.2l0,0c0,0-0.1,0-0.1,0
					C71.7,81.9,71.5,81.9,71.2,82z"/>
				<path class="st4" d="M105.6,62.5c-1.3-0.7-2.8-1-4.2-0.9c0,0-0.1,0-0.1,0c0,0-0.1,0-0.1,0c0,0-0.1,0-0.1,0.1
					c-2,0.5-3.9,1-5.8,1.7c-4,1.4-7.8,3.2-11.4,5.6c-1.9,1.3-3.6,2.7-5.2,4.3l0,0c-0.8,0.8-1.5,1.8-2.1,2.7c-0.1,1.6-0.9,3.1-2,4.2
					l0.4-0.2c4.6-0.3,9.2-0.4,13.7-0.2c1.7,0.1,6.7,0.5,7,0.4l-1.8-0.6c-1.2-0.1-2.2-1-2.3-2.3c0-0.4,0.1-0.8,0.3-1.2
					c0,0,0.3-0.6,0.7-1.4c-0.4-0.2,8.6-12.1,9.6-12.3c0.2,0,0.4-0.1,0.6-0.1C103.6,62.2,104.6,62.2,105.6,62.5z"/>
				<path class="st5" d="M91.4,77.4c0-0.4,0.1-0.8,0.3-1.2c0,0,0.3-0.6,0.7-1.4c-0.3-0.1,4-6,7-9.5c-8,2-15.7,7.4-19.5,14.6
					c2.3-0.1,5.2-0.1,8.7,0c1.7,0.1,6.7,0.5,7,0.4l-1.8-0.6C92.4,79.6,91.4,78.6,91.4,77.4z"/>
				<path class="st5" d="M110.5,67.9c-0.1,0.6-0.2,1.3-0.4,1.9c0,0.1-0.1,0.3-0.1,0.4c-0.7,1.3-1.7,2.4-3,3.2
					c-0.5,0.4-1.1,0.8-1.5,1.2l0.3-0.3l-1.1,0.5l-2.4,1.3c0.7,0.6,1.5,1.3,2.1,2c1.2-0.5,2.2-1.2,3.1-2.1v0c0.8-0.8,1.5-1.7,2-2.8
					c0.3-0.7,0.6-1.4,0.8-2.1v0c0.3-1,0.4-2,0.4-3c0-0.5,0-1-0.1-1.5C110.6,67,110.5,67.5,110.5,67.9z"/>
			</g>
			<g>
				<path class="st6" d="M116.5,69.4c-0.1,0.1-0.3,0.2-0.4,0.3V73c0.5-0.6,1-1.2,1.6-1.9C117.3,70.5,116.9,70,116.5,69.4z"/>
				<path class="st7" d="M92.8,105.6l-2.2-7.1c-2.9,0.5-5.6,0.9-8.1,1.2c-2,0.2-3.7,0.4-5.1,0.5h0l1.8,2.6c-1.5-0.1-2.9,0-4.3,0.5
					c-0.4,0.1-0.8,0.2-1.2,0.3c-0.4,0.1-0.9,0.3-1.3,0.4c-1.7,0.6-3.3,1.3-4.9,2.2c-2.2,1.1-4.3,2.4-6.3,3.7H89c0.3,0,0.5,0,0.8-0.1
					c0.2-0.1,0.5-0.1,0.7-0.3c0.2-0.1,0.4-0.2,0.7-0.4c0.3-0.2,0.5-0.4,0.7-0.7c0.1-0.1,0.1-0.2,0.2-0.3c0.1-0.2,0.2-0.4,0.3-0.6
					c0.3-0.6,0.5-1.2,0.5-1.9L92.8,105.6L92.8,105.6z"/>
				<path class="st7" d="M108.8,84.4c0.1-2-6.8-3.8-9.1-5.1c-0.9-0.4-1.6-1.1-2.1-1.9c-0.2-0.3-0.3-0.7-0.5-1
					c-0.6-2-0.6-4.1-0.1-6.2c0.1-0.6,0.3-1.2,0.5-1.8c0.5-1.7,1.3-3.3,2.2-4.8c0.1-0.2,0.2-0.3,0.3-0.4c0-0.1,0.1-0.1,0.1-0.2
					c-0.2,0.1-8.1,11.5-7.8,11.7l-0.8,1.5c-0.1,0.3-0.2,0.7-0.2,1.1c-0.1,2.4,4,2.9,4,2.9c0.4,0,0.8,0.1,1.2,0.1l0,0.1
					c0.6,0.1,1.2,0.2,1.8,0.4c2.8,0.7,5.3,2.3,7.1,4.6c0.9,1.1,1,3,0.6,5.1l0.1,0L108.8,84.4C108.8,84.4,108.8,84.4,108.8,84.4z"/>
			</g>
			<g>
				<path class="st8" d="M107.3,52.7h-1l-0.7,1h0l-2.3,3.4c-0.1,0.1-0.1,0.2-0.1,0.4c0,0.1,0,0.2,0,0.3c0,0.1,0,0.2,0.1,0.3h0
					c0.6,0.1,1.1,0.2,1.7,0.3c0.9,0.1,1.7,0.4,2.4,0.9c1.7,1.3,2.9,3.2,3.1,5.3c0.1,0.6,0.1,1.3,0.1,2c0.1,0.5,0.1,1,0.1,1.5
					c0,1-0.1,2-0.4,3v0c0.2,0.4,0.4,0.9,0.6,1.4c0,0.1,0.1,0.2,0.1,0.3c0.3,0.7,0.7,1.4,1.1,2.1c0.3,0.5,0.5,1,0.8,1.5
					c0,0.1,0.1,0.1,0.1,0.2c0.2,0.3,0.3,0.6,0.5,0.8c0.5,0.8,1,1.6,1.4,2.3c0.4,0.6,0.8,1.2,1.2,1.7V61.9c0,0-3-0.5-2.2-4.3
					c0.7-3.2,3.5-1.8,4.2-1.3c1-0.3,2-0.5,3-0.7c0.2-0.1,0.4-0.1,0.6-0.2c0.2-0.1,0.4-0.2,0.6-0.3c0.1,0,0.1-0.1,0.2-0.1
					c0.1-0.1,0.3-0.2,0.4-0.3c0.5-0.4,0.9-0.8,1.3-1.2c0.3-0.3,0.6-0.5,0.8-0.7L107.3,52.7z"/>
				<path class="st9" d="M103.2,58.1c0.3,0,0.6,0.1,0.8,0.1c1.4-1.6,3.3-2.9,5.3-3.6c4.3-1.5,10-1.4,14.5-1.3c0.2,0,0.4,0,0.5,0
					c0.3-0.2,0.5-0.4,0.8-0.7h-18.9l-0.7,1l0,0l-2.3,3.4c-0.1,0.1-0.1,0.2-0.1,0.4c0,0.1,0,0.2,0,0.3
					C103.1,57.9,103.1,58,103.2,58.1L103.2,58.1z"/>
				<path class="st2" d="M99.8,51.6c-4.3-6.2-12.2-1.9-16.7,1.4c-6.5,4.7-18.3,13.4-17.4,13.9c0,0,3,1.8,3.1,1.8l0.4,0.2
					c-3.6,0.4-6.2,3.7-5.8,7.3c0.4,3.6,3.7,6.2,7.3,5.8c0.1,0,0.3,0,0.4-0.1c0.1,0,0.1,0,0.2,0c0.2,0,0.5-0.1,0.7-0.2
					c0,0,0.1,0,0.1,0l1.2-0.8l1.2-0.7c1.2-1.1,1.9-2.6,2-4.2c0.6-1,1.3-1.9,2.1-2.8c1.6-1.6,3.3-3.1,5.2-4.3
					c3.5-2.3,7.4-4.2,11.4-5.6c1.9-0.7,3.9-1.2,5.8-1.7c0,0,0.1,0,0.1-0.1c0,0,0,0,0,0c0.4-0.8,0.5-1.6,0.5-2.5c0-0.4,0-0.8,0-1.2
					c0-0.4,0-0.9-0.1-1.3C101.3,54.8,100.7,53.1,99.8,51.6z"/>
				<path class="st9" d="M107.4,47.7c-0.5,0.9-0.9,1.8-1.1,2.8h2.6C108.9,49.4,108.3,48.4,107.4,47.7z"/>
			</g>
			<g>
				<path class="st7" d="M112.1,74.8c-0.4-0.7-0.8-1.5-1.1-2.1c-0.5,0.2-1,0.3-1.5,0.4c-0.5,1-1.2,2-2,2.8c1.1,0.4,2.3,0.7,3.5,0.8
					c0.5,0,0.9,0,1.4-0.1c0,0,0.1,0,0.1,0c0.2-0.1,0.3-0.1,0.5-0.2C112.6,75.8,112.4,75.3,112.1,74.8z"/>
				<path class="st1" d="M110.9,72.4c-0.2-0.5-0.4-1-0.6-1.4c-0.2,0.7-0.5,1.4-0.8,2.1c0.5-0.1,1-0.3,1.5-0.4
					C111,72.6,110.9,72.5,110.9,72.4z"/>
				<path class="st1" d="M116.1,73L116.1,73c0.5-0.6,1-1.2,1.6-1.9l0,0C117.1,71.7,116.6,72.4,116.1,73z"/>
				<path class="st1" d="M116.1,69.8c0.1-0.1,0.3-0.2,0.4-0.3c-0.1-0.2-0.3-0.4-0.4-0.6V69.8z"/>
				<path class="st1" d="M125.9,52.4v0.3h-0.8c-0.3,0.2-0.6,0.5-0.8,0.7c-0.4,0.4-0.9,0.8-1.3,1.2c-0.1,0.1-0.3,0.2-0.4,0.3
					c-0.1,0-0.1,0.1-0.2,0.1c-0.2,0.1-0.4,0.2-0.6,0.3c-0.2,0.1-0.4,0.2-0.6,0.2c-1,0.1-2,0.3-3,0.7c-0.8-0.5-3.6-1.9-4.2,1.3
					c-0.8,3.8,2.2,4.3,2.2,4.3v5.2c0.7,0.2,1.5,0.4,2.2,0.5c0.6,0.1,1.2,0.2,1.8,0.3h0c0.6,0.1,1.3,0.1,2.1,0.2c0.5-1,1-2,1.4-3.1
					c0.2-0.6,0.5-1.4,0.8-2.2c0,0,0-0.1,0-0.1c0.1-0.4,0.2-0.8,0.3-1.2c0.1-0.3,0.1-0.5,0.2-0.8c0-0.1,0-0.2,0.1-0.3
					c0.5-2.2,0.8-4.5,0.9-6.7C125.9,53.3,125.9,52.9,125.9,52.4L125.9,52.4z"/>
				<path class="st1" d="M107.6,82.2c0.2,0.3,0.4,0.6,0.6,0.9C107.9,82.8,107.8,82.5,107.6,82.2z"/>
				<path class="st1" d="M107.5,82.1L107.5,82.1C107.5,82.1,107.5,82.1,107.5,82.1C107.5,82.1,107.5,82.1,107.5,82.1z"/>
				<path class="st1" d="M100.1,63c-0.1,0.1-0.1,0.1-0.1,0.2c-0.1,0.1-0.2,0.3-0.3,0.4c-0.9,1.5-1.6,3.1-2.2,4.8
					c-0.2,0.6-0.3,1.2-0.5,1.8c-0.6,2-0.5,4.2,0.1,6.2c0.1,0.4,0.3,0.7,0.5,1c0.5,0.8,1.3,1.5,2.1,1.9c2.3,1.3,5.5,1.8,7.7,2.8
					c-0.9-1.5-2-2.8-3.1-4.1c-0.7-0.7-1.4-1.4-2.1-2l2.4-1.3l1.1-0.5l0.1-0.1c0.2-0.3,0.3-0.5,0.5-0.8c0,0,0-0.1,0-0.1
					c1-2.3,2.1-5,1.6-7.4c0-0.1,0-0.1,0-0.2c-0.1-0.2-0.1-0.4-0.2-0.7c-0.4-1-1.1-1.9-2.1-2.5c-1-0.3-2-0.4-3-0.2
					c-0.2,0-0.4,0.1-0.6,0.1"/>
				<path class="st7" d="M95.2,87.6l0,0.2l-1,5.3l0,0l1.8,0.5c-0.2,0.9-0.4,1.8-0.5,2.7c0,0.4-0.1,0.8-0.1,1.2c0,0.5,0,1,0,1.4
					c0,0.5,0,0.9,0,1.4c0,0.4,0.1,0.8,0.1,1.2c0-0.4-0.1-0.8-0.1-1.2c0,0.4,0.1,0.8,0.1,1.2c0,0.1,0,0.2,0,0.4
					c0,0.3,0.1,0.6,0.1,0.9c0,0.1,0,0.2,0,0.3c0.1,0.8,0.2,1.5,0.3,2.2c0,0.1,0,0.2,0.1,0.3c0,0.1,0,0.2,0.1,0.4
					c0-0.1,0-0.2-0.1-0.4c0,0.3,0.1,0.5,0.1,0.7c0-0.1,0-0.2-0.1-0.4c0,0.1,0,0.2,0.1,0.4c0,0.1,0,0.2,0.1,0.3
					c0.1,0.3,0.1,0.6,0.2,0.9c-0.1-0.3-0.1-0.6-0.2-0.9c0.1,0.3,0.1,0.6,0.2,0.9c0.1,0.3,0.1,0.6,0.2,0.8c0.2,1,0.4,1.6,0.4,1.6
					s0,0.2,0.1,0c0-0.1,0-0.1,0-0.2c0.2-1.9,1.4-11.8,2.8-18.2c0.2-0.9,0.4-1.7,0.6-2.4L95.2,87.6z M95.5,101.9
					c0,0.3,0.1,0.6,0.1,0.9C95.6,102.4,95.5,102.2,95.5,101.9L95.5,101.9z M95.8,104.2c-0.1-0.4-0.1-0.7-0.1-1.1
					C95.7,103.5,95.7,103.8,95.8,104.2c0.1,0.4,0.1,0.7,0.2,1.1C95.9,104.9,95.8,104.6,95.8,104.2L95.8,104.2z"/>
				<path class="st1" d="M105.4,85.5c-1.8-2.2-4.3-3.8-7.1-4.6c-0.6-0.2-1.2-0.3-1.8-0.4l0,0.2l-1.3,6.7l0,0.2l5.3,1.5
					c-0.2,0.7-0.4,1.5-0.6,2.4c-1.4,6.4-2.6,16.2-2.8,18.2c0.9-1.4,5.6-8.8,7.9-15.3c0.5-1.3,0.8-2.5,1.1-3.9l0.1,0v0l-0.1,0
					C106.4,88.4,106.3,86.6,105.4,85.5z"/>
			</g>
			<g>
				<path class="st9" d="M124.4,62.7C124.4,62.8,124.4,62.8,124.4,62.7c-0.3,0.9-0.5,1.7-0.8,2.3c-0.4,1.1-0.8,2.1-1.4,3.1
					c-0.7,0-1.4-0.1-2.1-0.2h0c-0.7-0.1-1.3-0.2-1.8-0.3c-0.7-0.1-1.5-0.3-2.2-0.5v1.8c0.1,0.2,0.3,0.4,0.4,0.6
					c0.4,0.6,0.8,1.1,1.2,1.7l0,0c1.9,2.6,3.9,5.2,5.9,7.6l0.3-6c0.7,1.2,1.7,2.2,2.9,3c0,0-2.3-6.7-2.5-11L124.4,62.7z"/>
				<path class="st4" d="M133.1,50.3c-0.1-0.3-0.4-0.4-0.7-0.3c0,0,0,0,0,0c-2.1,0.8-4.2,1.2-6.4,1.3v-6.6c0-1.2-1-2.2-2.2-2.2
					c0,0,0,0,0,0h-12c-3.1,0-5.6,2.5-5.6,5.6v4.6h19.8c2.3-0.4,4.6-0.9,6.8-1.7C133,50.9,133.2,50.6,133.1,50.3
					C133.1,50.3,133.1,50.3,133.1,50.3z M107.4,47.7c0.9,0.6,1.5,1.7,1.5,2.8h-2.6C106.5,49.6,106.9,48.6,107.4,47.7z"/>
				<path class="st2" d="M107.3,59.3c-0.7-0.5-1.6-0.8-2.4-0.9c-0.6-0.1-1.2-0.2-1.7-0.3h0c-0.5-0.1-1-0.1-1.5-0.2
					c0,0.4,0,0.8,0,1.2c0,0.9-0.1,1.7-0.5,2.5c0,0,0,0,0,0c0,0,0.1,0,0.1,0c0,0,0.1,0,0.1,0c1.5-0.1,2.9,0.2,4.2,0.9
					c1,0.6,1.7,1.4,2.1,2.5c0.1,0.2,0.2,0.4,0.2,0.7c0,0.1,0,0.1,0,0.2c0.5,2.4-0.6,5-1.6,7.4l0,0.1c-0.1,0.2-0.1,0.3-0.2,0.5
					l-0.3,0.3l-0.1,0.1l-0.3,0.3c0.5-0.4,1-0.8,1.5-1.2c1.3-0.8,2.3-1.9,3-3.2c0.1-0.1,0.1-0.2,0.1-0.4c0.2-0.6,0.3-1.3,0.4-1.9
					c0.1-0.4,0.1-0.9,0.1-1.3c0-0.7,0-1.3-0.1-2C110.2,62.5,109,60.6,107.3,59.3z"/>
			</g>
			<g>
				<path class="st8" d="M181.3,39.2c-0.7-2.3-2.3-4-4-4.2l3.3,9.7C181.6,43.6,182,41.4,181.3,39.2z"/>
				<path class="st10" d="M151.6,74.9L151.6,74.9l0-22.6c-0.1-1.7-1.4-3-3.1-3.1c-1.7,0-3.1,1.4-3.1,3.1V75l-13.1,21.5l-8.2,13.5
					h3.4l8.3-13.6h25.7l8.3,13.6h3.4l-18.6-30.4L151.6,74.9z M160.5,94.7h-23.8l9.2-15.2h5.4l1.5,2.5L160.5,94.7z"/>
				<path class="st10" d="M95.4,80.3c-0.4,0-0.9-0.1-1.3-0.1c-2-0.2-3.8-0.2-5.6-0.3c-4.6-0.2-9.2-0.1-13.7,0.2l-0.4,0.2L73.3,81
					L72,81.8l0,0L71.7,82C71.3,82,71,82,71,82c-1.7,3.2,3.2,18.4,3.2,18.4s1.2-0.1,3.2-0.2h0c1.4-0.1,3.1-0.3,5.1-0.5
					c2.4-0.3,5.2-0.7,8.1-1.2c0.2,0,0.4-0.1,0.6-0.1l-0.3-3.6l3-0.3l0.3-1.4l0,0l1-5.3l0-0.2l0-0.2l1.3-6.7l0-0.2l0-0.1
					C96.2,80.3,95.8,80.3,95.4,80.3z"/>
			</g>
		</g>
		<path class="st1" d="M271.1,33.4c0.1,1.9-1.3,3.6-3.2,3.7c-0.1,0-0.3,0-0.4,0c1.9-0.1,3.6,1.3,3.7,3.2c0,0.1,0,0.3,0,0.4
			c-0.1-1.9,1.3-3.6,3.2-3.7c0.1,0,0.3,0,0.4,0c-1.9,0.1-3.6-1.3-3.7-3.2C271.1,33.6,271.1,33.5,271.1,33.4z"/>
		<path class="st1" d="M256.1,19.1c0,4.8-3.2,7.9-7.9,7.9c4.8,0,7.9,3.2,7.9,7.9c0-4.8,3.2-7.9,7.9-7.9
			C259.2,27,256.1,23.9,256.1,19.1z"/>
		<path class="st4" d="M94.8,70.2c3.2,1.5,6.1,3.6,8.4,6.3c2-1.5,3.8-3.3,5.3-5.3c1.1-1.7,2.5-7-0.7-8.5
			C99.3,58.6,94.8,70.2,94.8,70.2z"/>
	</g>
</g>
</svg>
