<?xml version="1.0" encoding="utf-8"?>
<!-- Generator: Adobe Illustrator 24.3.0, SVG Export Plug-In . SVG Version: 6.00 Build 0)  -->
<svg version="1.1" id="Layer_1" xmlns="http://www.w3.org/2000/svg" xmlns:xlink="http://www.w3.org/1999/xlink" x="0px" y="0px"
	 viewBox="0 0 324 146" style="enable-background:new 0 0 324 146;" xml:space="preserve">
<style type="text/css">
	.st0{fill:#E9EDF8;}
	.st1{fill:#FFFFFF;}
	.st2{fill:#001927;}
	.st3{fill:#63B2BF;}
	.st4{fill:#E47B01;}
	.st5{fill:#F0A534;}
	.st6{fill:#8BE4C4;}
	.st7{fill:#75BFA4;}
	.st8{fill:#CED5E3;}
	.st9{fill:#78C3D4;}
	.st10{fill:#143040;}
	.st11{fill:#0D6069;}
	.st12{fill:#610034;}
	.st13{fill:#87064B;}
	.st14{fill:#509BA8;}
</style>
<g>
	<path class="st0" d="M4,0h316c2.2,0,4,1.8,4,4v87c0,2.2-1.8,4-4,4H4c-2.2,0-4-1.8-4-4V4C0,1.8,1.8,0,4,0z"/>
	<g>
		<rect x="206" y="12" class="st1" width="24.9" height="24"/>
		<rect x="260" y="12" class="st1" width="24.9" height="24"/>
		<rect x="179.1" y="38" class="st1" width="24.9" height="27"/>
		<rect x="179.1" y="12" class="st1" width="24.9" height="24"/>
		<rect x="233" y="12" class="st1" width="24.9" height="24"/>
		<rect x="233" y="38" class="st1" width="24.9" height="27"/>
		<rect x="206" y="38" class="st1" width="24.9" height="27"/>
		<rect x="287" y="38" class="st1" width="24.9" height="27"/>
		<rect x="287" y="12" class="st1" width="24.9" height="24"/>
		<rect x="260" y="38" class="st1" width="24.9" height="27"/>
	</g>
	<g>
		<g>
			<path class="st1" d="M26.9,83.7c9.9-4.1,16.6-5.4,29.6,0.1"/>
			<g>
				<polygon class="st1" points="54.3,97 29.3,97 27.1,85.7 56.5,85.7 				"/>
				<polygon class="st1" points="54.6,95.7 29,95.7 26.8,84.4 56.9,84.4 				"/>
				<polygon class="st1" points="56.6,86.1 27.1,86.1 26.9,85.1 56.9,85.1 				"/>
				<rect x="25.8" y="83.1" class="st1" width="32" height="1.9"/>
			</g>
		</g>
		<g>
			<path class="st1" d="M23.6,63.1L23.6,63.1c-3.3-0.3-6.6,0-9.7,1c-1.9,0.5-3.7,1.2-5.4,2.1l1.8,0.5c11.7,2,21.4,3.8,31.3,10.3
				l0.7-0.4c0-0.1-0.1-0.1-0.1-0.2C38.8,68.8,31.7,63.7,23.6,63.1z"/>
			<path class="st1" d="M29.1,51.6c-3.1-1.9-6.4-3.3-9.9-4c-2.5-0.6-5.1-0.9-7.7-1l1.5,1.5c10.5,8.1,19,15.1,25.3,26.7l0.9-0.1
				c0.5-5.9-0.8-11.9-3.9-16.9C33.7,55.3,31.6,53.2,29.1,51.6z"/>
			<path class="st1" d="M39.2,74.7C35,57.4,18.5,50.2,11.5,46.6l1.5,1.5c10.5,8.1,19,15.1,25.3,26.7L39.2,74.7z"/>
			<path class="st1" d="M62.6,62.9c-3.9-0.5-7.8,0-11.4,1.6c-5,2.3-8.4,6.8-10.5,11.8l0.6,0.4c9.6-6.3,19-8.1,30.3-10l1.7-0.5
				c-0.4,0.1-2.4-1.1-2.9-1.3c-1.2-0.5-2.4-0.9-3.7-1.2C65.4,63.4,64,63.1,62.6,62.9z"/>
			<path class="st1" d="M40.7,76.3c8-11.4,22.1-11.4,32.7-10.1l-1.7,0.5c-11.3,1.9-20.7,3.7-30.3,10L40.7,76.3z"/>
			<path class="st1" d="M38.9,46.7c-2.7-3.8-6.2-6.9-10.1-9.4c-0.5-0.3-2.9-1.2-3-1.7l0.7,1.9c6,11.8,10.8,21.7,11.5,35l0.8,0.3
				c0.7,0.2,3.1-7.4,3.3-8.2c0.7-3,0.9-6,0.5-9C42,52.4,40.8,49.3,38.9,46.7z"/>
			<path class="st1" d="M55,38.3c-0.4-0.3-3.6,1.9-4,2.2c-1.3,0.9-2.5,1.8-3.6,2.9c-4.7,4.4-7.5,9.2-7.7,15.8
				c-0.1,5.9,1.4,11.7,4.2,16.9l0.6-2c2-13.1,3.9-23.9,11-35.1L55,38.3z"/>
			<path class="st1" d="M55.9,50.5c-3.4,1.7-6.3,4.2-8.5,7.3c-3.4,5-4.2,11.1-3.7,16.9l0.9,0.1c6.3-11.7,14.9-18.6,25.3-26.7
				l1.5-1.5c-0.5,0.5-3.8,0.3-4.5,0.4c-1.7,0.2-3.4,0.6-5.1,1.1C59.7,48.7,57.7,49.5,55.9,50.5z"/>
			<path class="st1" d="M42.9,77.7c0.7-16.1,14.4-24.8,25.5-30.1l-1.3,1.6c-9.8,8.9-17.8,16.4-23.3,28.5L42.9,77.7z"/>
			<path class="st1" d="M46.1,77.3c0,2.4-2,4.3-4.3,4.2c-2.3,0-4.2-1.9-4.2-4.2c0-2.4,1.9-8.1,4.3-8.1S46.1,74.9,46.1,77.3z"/>
			<g>
				<polygon class="st1" points="36.1,75.9 38.9,80.3 38.6,76.6 				"/>
				<polygon class="st1" points="35.9,77.2 39.5,80.9 38.5,77.3 				"/>
				<polygon class="st1" points="35.9,78.9 40.5,81.2 38.4,78.2 				"/>
				<polygon class="st1" points="36.7,73.7 38.9,78.4 38.6,74.8 				"/>
				<polygon class="st1" points="37.4,71.5 38.6,76.5 39.1,72.9 				"/>
				<polygon class="st1" points="39.7,68.3 39.7,73.5 41.9,68.7 				"/>
			</g>
			<g>
				<polygon class="st1" points="47.4,75.9 44.6,80.3 44.9,76.6 				"/>
				<polygon class="st1" points="47.6,77.2 44,80.9 45,77.3 				"/>
				<polygon class="st1" points="47.7,78.9 43,81.2 45.1,78.2 				"/>
				<polygon class="st1" points="46.8,73.7 44.6,78.4 44.9,74.8 				"/>
				<polygon class="st1" points="46.2,71.5 44.9,76.5 44.4,72.9 				"/>
				<polygon class="st1" points="45,70 44.4,75.2 43.5,71.6 				"/>
				<polygon class="st1" points="43.8,68.3 43.8,73.5 42.4,70 				"/>
			</g>
		</g>
		<path class="st1" d="M29.3,83.1c8.3-3,14-4.1,24.8-0.1"/>
	</g>
	<g id="Layer_2_1_">
		<g>
			<polygon class="st2" points="233.6,84.7 209.9,84.7 217,50 240.7,50 			"/>
			<polygon class="st2" points="233.6,84.7 236.8,87.1 243.9,52.3 240.7,50 			"/>
			<path class="st1" d="M215.9,71.4c-2.8-0.3-14.1,0-14.1,0l-0.3,2.2l10.8,0.1l2.6,3.8L215.9,71.4z"/>
			<path class="st3" d="M218.5,52.7c-2.4-7.2-9,5.2-8.6,13.3c0.2,3.1,2.6,4.4,4.5,2.9C214.9,68.5,218.7,53.1,218.5,52.7z"/>
			<path class="st3" d="M206.8,63c2.8,0.9,5.2,2.9,6.6,5.5c0.4,0.8-1.9,1.9-2.8,2.4c-0.9,0.6-2.1,0.6-3,0.1c-1-0.5-1.5-1.6-1.3-2.7"
				/>
			<path class="st2" d="M223.3,48.1c0.8,0.7,1,5.2,0.8,6.3c0,0-2.3,5.9-3.5,7.3c0,0-5.4-0.7-7.5-2.6c1.3-1.1,2.4-2.4,3-4
				c0.2-0.5-0.9-4-0.5-4.3c0.5-0.6,1.2-1,1.9-1.1C220.8,48.7,223.3,48.1,223.3,48.1z"/>
			<path class="st2" d="M232,48.2c-3.6-1.7-12.3,0.2-13.6,2.2c-1.6,2.5-5.4,6.3-5.4,9.5c0,3.6,1.7,7.9,3.2,11c0,0,0.1,0,0.1,0
				c1.8,0.7,3.6,1.3,5.5,1.8c2,0.7,4.1,1.1,6.2,1.2c0.9-0.1,1.8,0,2.7,0.1c1,0.2,1.9,0.6,2.8,0c1.1-0.7-0.2-2.8-0.2-4
				c0.2-4.8,3.9-7.5,4.3-12.2C237.9,54.6,235.3,49.7,232,48.2z"/>
			<path class="st2" d="M231.4,48c-1.1,0-1.3,1.3-1.8,2.3c0,0-2.1,6-2.1,7.8c0,0,6.5,4,9.3,4c0,0,3.2-7.6,1.3-10.5
				S231.4,48,231.4,48z"/>
			<path class="st3" d="M194.5,76.3c-1.6,2.5-1,1.3-2.7,3.8l-2.2,2.7c1.2,0.1,3.8-1,4.8-1.7l3.1-2.6"/>
			<path class="st3" d="M204.3,110c-0.5-2.4-1.9-7.6-1.9-7.6l4.1-0.5L204.3,110z"/>
			<path class="st4" d="M220.6,85c-2.7,0.8-10.1,1.7-12.9,1.1l0.1,1.3c1,6,0.5,9.9-1.4,15.7c-1.4,0.2-2.8,0.4-4.2,0.4
				c0,0-3.2-12.6-6.5-20.3c-0.7-1.8,0.1-3.9,1.8-4.7c3.1-1.9,6.3-4.3,11.1-4.3l8.3,5.1l4.3,4.8L220.6,85z"/>
			<path class="st4" d="M224.6,86.1c1.8,0.7,8.1-2.3,9.3-3.8c1.1-1.6,1.7-3.5,1.7-5.4c0.1-2.5-1.4-5.2-2.2-7.6l-11.7-0.9L224.6,86.1
				z"/>
			<path class="st5" d="M192.8,77.7c-0.8,1-0.6,2.4,0.4,3.1c0.5,0.4,1.1,0.5,1.6,0.5l1.1-1.6c2.3-2.1,5.1-3.1,8.1-3.9l4.3-1.2
				c8.5,12.6,18,11.7,18,11.7c4.5-1,8.2-3.8,7.2-9c-0.9-5-7.7-7.7-11.9-9.5c-4-1.7-9.2-4-13.7-3.6l-0.7,0.2
				c-5.4,3.5-10.2,7.9-14.2,12.9L192.8,77.7z"/>
			<path class="st4" d="M233.7,77.2c-0.1-0.4-0.2-0.8-0.3-1.1c-0.3,0.8-0.7,1.5-1.1,2.2c-1.2,1.9-23-6.8-24.4-8.2
				c-0.2,0.5-10,7.6-14.6,10.7c0.6,0.4,1.3,0.6,2,0.6l1.6-0.9c2.3-2.1,4.2-4,7.2-4.9l3.9-1.2c8.5,12.6,18.5,11.7,18.5,11.7
				C231,85.1,234.7,82.4,233.7,77.2z"/>
			<path class="st5" d="M207.3,74.2c-4.2,0.9-8.4,3.5-9.7,4.2c-0.6,0.3-5.5,5.3,12.2,0.1c0.6-0.2,0.6-0.5,0.5-0.9
				C209.1,76.7,208,75.6,207.3,74.2z"/>
			<path class="st5" d="M207.2,74.3c4.2,5.9,10.3,10.3,17.3,12.3c0.2,0.1,0.4-0.1,0.5-0.3c0-0.2-0.1-0.4-0.3-0.5
				c-6.8-1.9-12.7-6.1-16.8-11.9C207.6,73.5,206.9,73.9,207.2,74.3L207.2,74.3z"/>
			<path class="st2" d="M241.8,74.6c-2.8-0.3-21,0-21,0l-0.3,2.2l21.1,0.1L241.8,74.6z"/>
			<path class="st2" d="M233.7,76.2c-1.7-0.2-3.4-0.2-5,0c-0.3,1.5-0.7,2.9-1.3,4.2c-0.5,1.5-1.3,3.5-2.4,6.3l5.1,0.1L233.7,76.2z"
				/>
			<rect x="217.8" y="89" class="st2" width="3.7" height="20"/>
			<g>
				<path class="st2" d="M232.8,110L232.8,110c-0.2-1.2-1.2-2.2-2.5-2.1l-11.3-1v3.1H232.8z"/>
				<path class="st2" d="M205.9,110L205.9,110c0.2-1.2,1.2-2.2,2.5-2.1l11.3-1v3.1H205.9z"/>
			</g>
			<g>
				<g>
					<path class="st6" d="M168.2,59.4l0.4-0.1l0.4-0.1l0.1-0.7c0-0.2,0-0.5,0-0.7l0-0.2c-0.1-0.3-0.3-0.6-0.6-0.7l-0.6-0.3l-0.4,0.5
						c-0.2,0.3-0.2,0.6-0.1,0.9l0.1,0.2c0.1,0.2,0.2,0.4,0.3,0.6L168.2,59.4z"/>
					<path class="st6" d="M170.3,59.4l-0.4-0.1l-0.4-0.1l-0.1-0.7c0-0.2,0-0.5,0-0.7l0-0.2c0.1-0.3,0.3-0.6,0.6-0.7l0.6-0.3l0.4,0.5
						c0.2,0.3,0.2,0.6,0.1,0.9l-0.1,0.2c-0.1,0.2-0.2,0.4-0.3,0.6L170.3,59.4z"/>
					<path class="st7" d="M168.1,60.5l0.5-0.2l0.5-0.2l-0.1-0.8c0-0.3-0.1-0.6-0.3-0.8l-0.1-0.3c-0.2-0.4-0.5-0.6-0.9-0.7l-0.8-0.2
						l-0.3,0.7c-0.1,0.3-0.1,0.7,0.1,1l0.1,0.2c0.2,0.2,0.3,0.5,0.6,0.6L168.1,60.5z"/>
					<path class="st7" d="M169.8,60.3l-0.6,0l-0.6,0l-0.3-0.7c-0.1-0.3-0.2-0.5-0.2-0.8l0-0.3c0-0.4,0.1-0.7,0.4-1l0.6-0.5l0.6,0.5
						c0.3,0.2,0.5,0.6,0.4,1l0,0.3c0,0.3-0.1,0.6-0.2,0.8L169.8,60.3z"/>
					<path class="st7" d="M170.4,60.5l-0.5-0.2l-0.5-0.2l0.1-0.8c0-0.3,0.1-0.6,0.3-0.8l0.1-0.2c0.2-0.4,0.5-0.6,0.9-0.7l0.8-0.1
						l0.3,0.7c0.1,0.3,0.1,0.7-0.1,1l-0.1,0.2c-0.2,0.2-0.3,0.4-0.6,0.6L170.4,60.5z"/>
					<g>
						<path class="st6" d="M168.7,60.9l-0.4,0.4l-1.8-0.5c-0.5-0.1-0.9-0.6-0.9-1.1v0l0-0.8l0.8-0.1c0.4,0,0.8,0.1,1.1,0.4l0.2,0.2
							c0.2,0.2,0.4,0.5,0.6,0.8L168.7,60.9z"/>
						<path class="st6" d="M169.3,61.4l-0.6,0.1c0,0-1.3-0.8-1.4-1.4l-0.1-0.3c-0.1-0.4,0-0.8,0.3-1l0.6-0.6l0.8,0.4
							c0.4,0.2,0.6,0.5,0.7,0.9l0,0.3c0,0.3,0,0.6,0,0.9L169.3,61.4z"/>
						<path class="st6" d="M170.2,60.9l0.4,0.4l1.8-0.5c0.5-0.1,0.9-0.6,0.9-1.1v0l0-0.8l-0.8-0.1c-0.4,0-0.8,0.1-1.1,0.4l-0.2,0.2
							c-0.2,0.2-0.4,0.5-0.6,0.8L170.2,60.9z"/>
						<path class="st6" d="M169.3,61.4l0.6,0.1c0,0,1.3-0.8,1.4-1.4l0.1-0.3c0.1-0.4,0-0.8-0.3-1l-0.6-0.6l-0.8,0.4
							c-0.4,0.2-0.6,0.5-0.7,0.9l0,0.3c0,0.3,0,0.6,0.1,0.9L169.3,61.4z"/>
					</g>
					<polygon class="st1" points="172.4,68.7 166.3,68.7 165.1,60.8 173.6,60.8 					"/>
					<path class="st8" d="M167.6,67.2c-0.4,0.3-0.9,0.5-1.3,0.7l0.1,0.8l6.1,0l1.2-7.9h-0.1C172.2,63.4,170.1,65.7,167.6,67.2z"/>
				</g>
				<rect x="165" y="60.7" class="st9" width="8.7" height="0.4"/>
			</g>
			<g>
				<path class="st10" d="M153.4,110h32.1c-3.6-1.4-6-2.1-7.9-2.7c-1.9-0.6-3.3-2.1-3.9-4c-2.4-7.7-3-15.8-1.6-23.7
					c0.4-2.6,1.9-4.8,4.1-6.2c0.3-0.2,0.5-0.3,0.8-0.5c0,0,0,0,0,0c0,0,0.1-0.1,0.1-0.1c0,0,0,0,0,0c0,0,0-0.1,0-0.1
					c-0.2-0.9-4-2.7-7.7-2.7l0,0l0,0c-3.7,0-7.5,1.9-7.7,2.7c0,0,0,0.1,0,0.1c0,0,0,0,0,0c0,0,0.1,0.1,0.1,0.1c0,0,0,0,0,0
					c0.3,0.2,0.6,0.3,0.8,0.5c2.2,1.4,3.7,3.6,4.1,6.2c1.3,7.9,0.8,16.1-1.6,23.7c-0.6,1.9-2.1,3.4-3.9,4
					C159.5,107.9,157.1,108.6,153.4,110z"/>
				<path class="st2" d="M166.9,79.6c0.1,0.7,0.2,1.5,0.3,2.2c0,0,0.1,0,0.1,0.1c1.2-0.7,2.4-1.4,3.6-2.2c0.5-0.3,0.9-0.6,1.4-0.9
					c0.6-2.2,2.1-4.1,4-5.3c0.3-0.2,0.5-0.3,0.8-0.5c1-0.6-3.4-3-7.6-3s-8.6,2.5-7.6,3l0.1,0C164.6,74.3,166.4,76.7,166.9,79.6z"/>
				<path class="st5" d="M193.9,73.1h-48.7c-0.4,0-0.8-0.2-1.1-0.5l-1.4-1.8c-0.5-0.6-0.4-1.4,0.2-1.9c0.2-0.2,0.5-0.3,0.8-0.3h51.5
					c0.7,0,1.3,0.6,1.3,1.3c0,0.3-0.1,0.6-0.3,0.8l-1.4,1.8C194.7,72.9,194.3,73.1,193.9,73.1z"/>
				<path class="st4" d="M194.7,68.9c-2.7,1.7-8.5,3.8-37,4.2h36.1c0.4,0,0.8-0.2,1.1-0.5l1.4-1.8c0.5-0.6,0.4-1.4-0.2-1.9
					c-0.2-0.2-0.5-0.3-0.8-0.3l0,0C195.1,68.7,194.9,68.8,194.7,68.9z"/>
			</g>
			<g>
				<path class="st11" d="M130,38.8c1.4-1.8,2-4,1.7-6.3c-0.2-1.6-1.4-2.9-3-3.2c-1.7-0.3-4.3-0.4-8.2,1"/>
				<path class="st3" d="M152.6,58.5l-2.6-1.1l2.7-3.2c0.2-0.2,0.4-0.3,0.7-0.3l0,0c0.4,0.1,0.7,0.4,0.6,0.8c0,0.1,0,0.1,0,0.2
					L152.6,58.5z"/>
				<path class="st3" d="M154,58.9l-1.9-0.8l3.1-4.3c0.2-0.3,0.5-0.4,0.8-0.2l0,0c0.4,0.1,0.5,0.6,0.4,0.9c0,0,0,0.1,0,0.1L154,58.9
					z"/>
				<path class="st3" d="M158.8,53.5c-0.3,0-0.6,0-0.8,0.2c-1.2,0.7-3.5,2.5-4.7,3.1c-0.3,0.2-0.7,0.2-1,0.1c-1-0.2-2.1-0.4-3.1-0.5
					c-0.8,0-1.5,0.6-1.6,1.4c0,0.1,0,0.3,0,0.4l0,0c0.1,0.5,0.5,1,1,1.1c1.2,0.3,2.3,0.5,3.5,0.6c1.1,0.1,2.1-0.3,2.9-1
					c0.9-0.9,3.3-3.9,4.3-4.9C159.7,53.8,158.8,53.5,158.8,53.5z"/>
				<path class="st12" d="M149.4,56.3l-1.5,0c-4.8,0.4-11.6,3.9-11.6,3.9s-3.2-4.1-5.5-7.8c-1.2-1.9-5.2-5-7.4-4.4
					c-1.3,0.4-0.7,3.4-1.3,5.3c-1.5,5.2,4.6,11.8,4.6,11.8c0.8,1.4,4.6,4.1,6.8,5.7c1.1,0.7,2.4,0.8,3.5,0.2c4-2.4,8.4-6.9,11-9.5
					l0.1-0.7l1,0.1L149.4,56.3z"/>
				<path class="st2" d="M111.8,84.7h22.5l-6.6-32.4c-0.3-1.4-1.5-2.4-2.9-2.4h-20.1L111.8,84.7z"/>
				<polygon class="st2" points="111.8,84.7 108.7,87.1 101.6,52.3 104.7,50 				"/>
				<path class="st12" d="M124.4,46.8c1,0.4,3.7,2,3.7,2c-0.5,0.6-0.9,1.2-1.1,1.8c0.3,0.3,0.7,0.6,1.2,0.8c0,0,2.2,8.4,2.4,10.9
					c0,0,0.3,12.4,0,13.8l-1.6-0.2c0,0-0.1-21.8-4.1-24.3l-1-3.1L124.4,46.8z"/>
				<path class="st13" d="M127.2,51.4c2.9,7.3,3,15.1,3,22.9c0,0.2,0.2,0.4,0.4,0.4c0.2,0,0.4-0.2,0.4-0.4c0-7.8-0.1-15.7-3-23.1
					C127.8,50.8,127,51,127.2,51.4L127.2,51.4z"/>
				<path class="st12" d="M114.9,44.6c1.1-0.5,2.2-0.6,3.4-0.4l4.3,2.9c0,0-7.2-0.1-7.3,0.3C115.1,46.5,115,45.5,114.9,44.6z"/>
				<path class="st5" d="M124.6,50c0,0,4.8,4.4,4.9,25.9c-4.7-0.5-9.4,0.4-13.6,2.5c0,0-1.3-27.3,0.9-28.7s1.9-1.5,1.9-1.5
					c-0.4,0.5,5.2,3.5,5.2,3.5C124.3,51.2,124.6,50.6,124.6,50z"/>
				<path class="st4" d="M124.6,50c0,0.6-0.3,1.2-0.7,1.7c0,0-1-0.5-2.1-1.2c3.2,3.4,4.1,4.7,4.6,8.9c0.3,2.8,1.4,12.4,1.6,15.2
					c0.1,1.7-1.5-0.6-1.6,1.1c1-0.1,2.1,0,3.1,0.1C129.4,54.4,124.6,50,124.6,50z"/>
				<path class="st3" d="M117.5,47.5c-0.1-1.1-0.1-3.6-0.2-4.7l-0.4-0.8l6.4,0.6l1.2,2.5c0.1,2.3,0.1,4.5-0.1,6.8
					c0,0.5-0.4,0.8-0.9,0.8c-0.1,0-0.2,0-0.3-0.1l-3.2-1.3L117.5,47.5z"/>
				<path class="st1" d="M129.3,32.7c1.9,5.3-1,11.9-2.3,14.4c-0.3,0.7-1,1.1-1.7,1.1l-0.6,0c-1.1,0-2.1-0.4-3-1
					c-3.2-2.6-5.5-6.1-6.7-10.1l0.1-0.2c2.6-4.3,7.9-6.2,12.7-4.7L129.3,32.7z"/>
				<path class="st3" d="M120,43.8c-0.9-2.4,0.2-7.4-0.2-9.9c-0.1-0.3-0.1-0.7-0.2-1c-1.8,0.9-3.3,2.3-4.4,4l-0.1,0.2
					c1.2,3.9,3.5,7.4,6.7,10.1c0.9,0.7,1.9,1,3,1l0.6,0c0.1,0,0.3,0,0.4-0.1C123,47.6,121,46.3,120,43.8z"/>
				<path class="st14" d="M118.4,44.1c-1.1,0-0.7,0.2-1.5-0.6c-3.1-3.2-4.2-7.8-2.9-12.1c0.4-1.2,1.1-2.2,2.1-2.9
					c2-1.4,5.8-3,11.7-0.3c0.4,0.2,0.8,0.5,1.1,0.8c1.1,0.9,1.8,2.2,1.9,3.7c0.1,0.8-0.1,1.6-0.5,2.3c-1,1.7-8.6,3.6-9.6,3.3
					l-0.9,1.1C119.7,39.5,119.6,44.1,118.4,44.1z"/>
				<path class="st11" d="M116.4,36.7c-1.4-1.8-2.1-4.1-1.9-6.3c-0.2,0.4-0.4,0.7-0.5,1.1c-1.3,4.2-0.2,8.9,2.9,12.1
					c0.8,0.8,0.4,0.6,1.5,0.6c1.1,0,1.3-4.1,1.3-4.6C118.4,38.8,117.3,37.8,116.4,36.7z"/>
				<path d="M128.8,74.3c3.8-0.2,10.6,0.6,14.8,1.3c2.9,0.4,5,2.9,4.9,5.8c-0.4,10.3-7.4,28.6-7.4,28.6c-1.2-2.9-2.2-16.2-1.8-19.9
					l0-7.4c0,0-10,1.7-13.9,1.4S128.8,74.3,128.8,74.3"/>
				<path class="st2" d="M140.4,90.2h-27.3c-2.6,0-4.7-2.1-4.7-4.7v-0.8h32L140.4,90.2L140.4,90.2z"/>
				<path d="M131.1,74.4c1.7,0.3,4.5,0.8,6.6,1.1c1.7,0.3,3.1,1.5,3.5,3.2c2.6,10.9,6.7,31.3,6.7,31.3c-6.1-6.5-14-17-17.5-24.2
					c0,0-12.4,0.7-17.5-1c-1.6-1.6-2.4-3.7-2.2-5.9l15.6-4.9L131.1,74.4z"/>
				<path class="st13" d="M106.7,50.6c0.1-2.4,5.6-2.8,8-3.1l5.6,3.2l2.8,2.2l-0.2,24.8c0,0-8.8,3.4-12,4.3
					C110.8,82,105.5,70.2,106.7,50.6z"/>
				<path class="st12" d="M105.2,52.9c0,0,0.8-2.6,2-3.4s8,3.1,7.1,9.2c-0.4,2.9-1.6,5.6-2.5,8.3c0,0,6,2.1,9.3,3.4l-0.8,5.1
					c-4.9-0.1-9.7-0.5-14.5-1.3c-1.1-0.2-2-1.1-2.1-2.2C103.2,68.5,102.6,60.5,105.2,52.9z"/>
				<path class="st1" d="M120.5,38.7c0-1.4-2.6-1.4-3,0c-0.4,1.7,0.4,3.4,2,4.1"/>
				<path class="st3" d="M118.2,37.9c-0.3,0.2-0.6,0.5-0.7,0.8c-0.4,1.7,0.4,3.4,2,4.1l0.1-0.4C118.9,41,118.4,39.4,118.2,37.9z"/>
				<path class="st13" d="M114.4,48.5c0-1.3,0.1-2.5,0.1-3.8l0.5-0.2c0.3,0.9,3.9,4,6.5,4.9l-0.2,2.7L114.4,48.5z"/>
				<path class="st12" d="M115.1,49c1.2,1.5,2.8,2.6,4.6,3.1c0.2,0.1,0.4-0.1,0.5-0.3c0-0.2-0.1-0.4-0.3-0.5c-1.6-0.5-3-1.4-4.1-2.7
					C115.5,48.2,114.8,48.6,115.1,49z"/>
			</g>
			<path class="st3" d="M231.9,48.1L231.9,48.1c-1.2-0.6-2.4-1.3-3.5-2c-3.3,0.7-6.5,1.8-9.5,3.2c-0.2,0.1,1,1.3,1,1.3
				c0.9,0.7,2.1,0.9,3.2,0.6c3.1-0.8,6.1-1.8,9-3C232,48.1,231.9,48.1,231.9,48.1z"/>
			<path class="st3" d="M231.9,48.1L231.9,48.1c-1.2-0.6-2.4-1.3-3.5-2c-0.1-0.1-5.8,4.1-6.9,4.4c0.1,0.5,0.8,0.7,1.4,0.7
				c0.1,0,0.2,0,0.2,0c3.1-0.8,6.1-1.8,9-3C232,48.1,231.9,48.1,231.9,48.1z"/>
			<path class="st1" d="M201.2,67.6c0.1,0.7,1.3,3.1,2,3.2c0.4,0,0.8,0,1.2-0.2c0.8-0.2,0.8-2.8,1-2.9c0.1-0.1,0.7,0.9,1.2,1.2
				c0.4,0.2,0.8,0.2,1.2,0c-0.5-1.1-0.9-2.3-1.2-3.5c-0.2-1.9,2.3-2.3-0.6-2.6c-1.1-0.1-2.2,0.3-3,1C202.7,64,201.1,67.1,201.2,67.6
				z"/>
			<path class="st3" d="M206.6,65.5c-0.2-1.9,2.3-2.3-0.6-2.6c-0.2,0-0.4,0-0.6,0c-0.2,1.1-0.7,2.2-1.4,3.1
				c-0.8,0.9-1.8,1.5-2.6,2.4c0.3,1.2,1.5,2.5,2,2.5c0.4,0,0.7,0,1.1-0.2c0.8-0.2,0.8-2.8,1-2.9c0.1-0.1,0.7,0.9,1.2,1.2
				c0.4,0.2,0.8,0.2,1.2,0C207.2,67.9,206.8,66.7,206.6,65.5z"/>
			<path class="st3" d="M206.6,65.2c-1.7,1.1-3.4,2-5.3,2.6c0.3,1.2,1.1,3,1.7,3c0.5,0,1,0,1.4-0.2c0.8-0.2,0.8-2.8,1-2.9
				c0.1-0.1,0.7,0.9,1.2,1.2c0.4,0.2,0.8,0.2,1.2,0c-0.5-1.1-0.9-2.3-1.2-3.5C206.6,65.4,206.6,65.3,206.6,65.2z"/>
			<g>
				<path class="st1" d="M229,47.8c-2.3,1.5-4.8,2.4-7.5,2.7l-1.2-2.8c-1,0.3-2,0.4-3,0.3c-3.3-5-5.6-13.4,0.9-17.3
					c2.2-1.3,4.9-1.5,7.2-0.5c0.6,0.2,1.1,0.1,1.6,0.5c0.7,0.6,1.2,1.4,1.5,2.2c0.7,1.5,0.4,3,0.4,4.6c0,1.6-0.6,3.2-1.7,4.4
					L229,47.8z"/>
				<path class="st3" d="M227.1,41.9c1.1-1.2,1.7-2.8,1.7-4.4c0-1.6,0.3-3.2-0.4-4.6c-0.1-0.2-0.2-0.5-0.3-0.7
					c-0.3,2.7-1.2,5.3-2.7,7.6c-1.7,2.5-0.2,5.8-7.7,8.1c0.8,0,1.7-0.1,2.5-0.3l1.2,2.8c2.7-0.3,5.3-1.2,7.5-2.7L227.1,41.9z"/>
				<path class="st3" d="M229,47.8c-2.3,1.5-4.8,2.4-7.5,2.7l-1.2-2.8c1.9-0.6,3.8-2.7,5.1-4.1c1.5-1.5,1.6-4.7,1-4.1L229,47.8z"/>
				<path class="st14" d="M223.1,29.3c-0.6-0.3-0.8-1.1-0.4-1.7c0.3-0.6,1-0.8,1.6-0.5l-0.1-0.2c-0.6-1-0.2-2.3,0.8-2.8
					c1-0.6,2.3-0.2,2.8,0.8c0.1,0.2,0.2,0.5,0.2,0.8l0-0.1c0.5-0.9,1.5-1.2,2.4-0.7c0.7,0.4,1.1,1.2,0.9,1.9l0,0.2
					c1.1-0.1,2.2,0.7,2.3,1.9c0.1,1.1-0.7,2.1-1.8,2.3v0c0.7-0.1,1.2,0.4,1.3,1.1c0.1,0.6-0.3,1.1-0.8,1.3l0,0
					c0.4,0.7,0.4,1.5,0,2.2c-0.8,1.1-2.5,1.1-3.5,0.4c-0.2,0.7-1,1-1.6,0.8c0,0-0.1,0-0.1,0c-0.6-0.3-1.2-0.8-1.5-1.5"/>
				<path class="st11" d="M232,31.2c1.1-0.2,1.9-1.2,1.7-2.4c-0.2-1.1-1.2-1.9-2.3-1.8l0-0.2c0.1-0.4,0-0.7-0.1-1
					c-0.1,0.6-0.4,1.2-0.9,1.6c1.6,0.7,1,2.6-0.4,3.3c1.5,1.9-1.5,3.6-3.3,2.8c-0.6,0.1-1.2,0.3-1.7,0.7l0.5,1.1
					c0.3,0.6,0.8,1.2,1.5,1.5c0.6,0.3,1.4,0,1.7-0.6c0,0,0-0.1,0-0.1c1.1,0.7,2.8,0.8,3.5-0.4c0.4-0.7,0.5-1.5,0-2.2l0,0
					c0.6-0.2,1-0.9,0.8-1.5C233,31.6,232.6,31.2,232,31.2L232,31.2z"/>
				<path class="st14" d="M227.2,42.7c2.9-3.6,2.9-9.1-0.5-12.3c-2.3-2.2-6.2-1.5-6.2-1.5c-3,0.8-5.3,3.1-6,6.1l0.1,0.3
					c1.4,0,6.3-1.5,6.3-1.5c0.3,2.5,1.4,5.9,3.4,5.8l1.6,1.2C226.1,41.5,226.6,42.2,227.2,42.7z"/>
				<path class="st11" d="M227.7,31.4c0.9,3-0.2,6.2-2.6,8.2c0.1,1.2,0.2,3,1.3,3.6c0.4,0.1,0.8,0.1,1.1-0.1
					C230.1,39.6,230.1,34.9,227.7,31.4z"/>
				<path class="st1" d="M223.9,40.3c-0.3-0.6,0-1.4,0.7-1.6c0.1,0,0.1-0.1,0.2-0.1c0.8-0.1,1.5,0.3,1.8,1c0.3,0.7,0.3,1.5,0,2.2
					c-0.3,0.7-0.7,1.3-1.2,1.9"/>
				<path class="st3" d="M226.5,39.6c-0.2-0.4-0.5-0.7-0.9-0.9c-0.4,1-0.8,1.9-1.3,2.8l1,2.2c0.5-0.6,0.9-1.2,1.2-1.9
					C226.8,41.1,226.8,40.3,226.5,39.6z"/>
				<path class="st5" d="M226.1,42.5L226.1,42.5c0.5,0.2,0.8,0.8,0.6,1.3c-0.1,0.5-0.5,1-1.1,1c-0.6,0-1-0.5-1-1.1
					c0-0.6,0.3-1.1,0.7-1.4c0.4-0.3-0.2-0.9-0.6-0.6c-0.7,0.6-1.1,1.6-0.9,2.5c0.2,0.9,1,1.5,1.9,1.4c1.1-0.2,1.9-1.3,1.7-2.4
					c-0.1-0.6-0.5-1.1-1-1.4"/>
			</g>
			<path class="st1" d="M238.8,53.6c1.6,6.6,1.1,13.6-1.3,20c0,0-3.3-1.3-4.2-4c-1.1-3-2.7-10.9-2.7-10.9c-0.3-2.5,0.4-5,2-6.9
				c1.1-1.5,3.1-1.8,4.6-0.7c0.1,0.1,0.3,0.2,0.4,0.3l0,0C238.1,52,238.6,52.7,238.8,53.6z"/>
			<path class="st3" d="M238.8,53.6c-0.2-0.8-0.6-1.6-1.2-2.2c-1.3-1.3-3.3-1.3-4.6,0c-0.1,0.1-0.2,0.3-0.3,0.4c0,0-0.5,0.6-0.5,0.6
				c2.6-1.2,4.6,6.3,4.7,9.6c0.2,3.6,0,7.3-0.6,10.8c0.5,0.3,1.1,0.5,1.7,0.6C240.1,67,240.5,60.1,238.8,53.6z"/>
			<path class="st1" d="M236.3,74.4c-2.9,0.1-5.7,0.1-8.6-0.1l-1.2-3.2c2-0.7,4.8-3.1,7.4-3.7c1.5,0.1,2.8,1.1,3.3,2.5
				C239.1,74.3,236.3,74.4,236.3,74.4z"/>
			<path class="st3" d="M227,72.5l0.7,1.9c2.9,0.2,5.8,0.2,8.7,0.1c0,0,3.4-0.8,0.2-5.6C236.9,71,232.2,72.6,227,72.5z"/>
			<g>
				<path class="st3" d="M225.3,71.9l-4.6,1.7l0.5,0.9h5.9C227.2,74.5,228.6,71.8,225.3,71.9z"/>
				<path class="st1" d="M229.7,74.1l-2.2,4.4c-0.9,0-1.7,0-2.6,0.1c-0.5-1.6-0.9-3.3-1.1-5c-0.1-1.2,0.4-1.3,1.5-2.1
					c0.8-0.5,2.1-1.3,2.6-0.8C228.6,71.8,229.3,72.9,229.7,74.1z"/>
				<path class="st3" d="M228.6,71.8c-1.1,2.1-2.4,4.1-4.1,5.8c0.2,0.7,0.3,1.1,0.3,1.1c0.9-0.1,1.7-0.2,2.6-0.1l2.2-4.4
					C229.4,73.3,229,72.5,228.6,71.8z"/>
				<path class="st3" d="M223.8,74.4c0.2,1.5,0.5,2.9,1,4.3c0.9-0.1,1.7-0.2,2.6-0.1l1.8-3.5C227.4,75.1,225.6,74.8,223.8,74.4z"/>
				<polygon class="st1" points="224,72.5 222.5,74.1 222.6,77.6 223.6,77.9 224.9,73.3 				"/>
				<path class="st3" d="M222.5,74.1l0.1,3.5l1,0.3l0.8-2.9C223.7,74.9,223,74.6,222.5,74.1z"/>
			</g>
			<path class="st2" d="M205.4,84.7h31.4v2.1c0,1.9-1.5,3.4-3.4,3.4h-23.2c-2.7,0-4.8-2.2-4.8-4.8l0,0V84.7z"/>
			<g>
				<path class="st2" d="M102.1,74.6c2.8-0.3,21.2,0,21.2,0l0.3,2.2l-21.3,0.1L102.1,74.6z"/>
				<path class="st2" d="M110.4,76.2c1.7-0.2,3.4-0.2,5,0c0.3,1.5,0.7,2.9,1.3,4.2c0.5,1.5,1.3,3.5,2.4,6.3l-5.1,0.1L110.4,76.2z"/>
				<rect x="122.6" y="89" class="st2" width="3.7" height="20"/>
				<g>
					<path class="st2" d="M111.2,110L111.2,110c0.2-1.2,1.2-2.2,2.5-2.1l11.3-1v3.1H111.2z"/>
					<path class="st2" d="M138.1,110L138.1,110c-0.2-1.2-1.2-2.2-2.5-2.1l-11.3-1v3.1H138.1z"/>
				</g>
			</g>
			<g>
				<path class="st3" d="M122.7,71.9l4.6,1.7l-0.5,0.9h-5.9C120.8,74.5,119.4,71.8,122.7,71.9z"/>
				<path class="st1" d="M118.7,74.9l1.9,3.7c0.9,0,1.7,0,2.6,0.1c0.5-1.6,0.9-3.3,1.1-5c0.1-1.2-0.6-1.7-1.8-2.5
					c-0.8-0.5-1.8-0.9-2.3-0.4c-0.6,0.7-1.1,1.6-1.5,2.5C118.4,73.8,118.5,74.4,118.7,74.9z"/>
				<path class="st3" d="M124.2,74.4c-0.2,1.5-0.5,2.9-1,4.3c-0.9-0.1-1.7-0.2-2.6-0.1l-1.8-3.5C120.6,75.1,122.4,74.8,124.2,74.4z"
					/>
				<polygon class="st1" points="123.9,72.3 125.5,73.7 125.4,77.6 124.4,77.9 123.3,74 				"/>
				<path class="st3" d="M125.5,74.2l-0.1,3.5l-1,0.3l-0.8-2.8C124.3,75,125,74.7,125.5,74.2z"/>
			</g>
		</g>
	</g>
</g>
</svg>
