<?xml version="1.0" encoding="utf-8"?>
<!-- Generator: Adobe Illustrator 24.3.0, SVG Export Plug-In . SVG Version: 6.00 Build 0)  -->
<svg version="1.1" id="Layer_1" xmlns="http://www.w3.org/2000/svg" xmlns:xlink="http://www.w3.org/1999/xlink" x="0px" y="0px"
	 viewBox="0 0 324 146" style="enable-background:new 0 0 324 146;" xml:space="preserve">
<style type="text/css">
	.st0{fill:#E9EDF8;}
	.st1{fill:#FFFFFF;}
	.st2{fill:#9FA9BF;}
	.st3{fill:#F0A534;}
	.st4{fill:#001927;}
	.st5{fill:#63B2BF;}
	.st6{fill:#509BA8;}
	.st7{fill:#610034;}
	.st8{fill:#E6E6E6;}
	.st9{fill:#87064B;}
	.st10{fill:#E47B01;}
	.st11{fill:#0D6069;}
</style>
<g>
	<path class="st0" d="M4,0.1h316c2.2,0,4,1.8,4,4v87c0,2.2-1.8,4-4,4H4c-2.2,0-4-1.8-4-4v-87C0,1.9,1.8,0.1,4,0.1z"/>
	<g>
		<g>
			<g id="Layer_2_1_">
				<g>
					<path class="st1" d="M35.1,33.2V30h10c0.9,0,1.6,0.7,1.6,1.6l0,0c0,0.9-0.7,1.6-1.6,1.6c0,0,0,0,0,0H35.1z"/>
					<path class="st1" d="M23.7,59v-3.2h10c0.9,0,1.6,0.7,1.6,1.6l0,0l0,0c0,0.9-0.7,1.6-1.6,1.6L23.7,59L23.7,59z"/>
					<polygon class="st1" points="23.6,52 45.6,52 45.6,40.5 24.9,40.5 					"/>
					<rect x="43.6" y="58.4" class="st1" width="13.8" height="11.6"/>
					<rect x="21.6" y="76.5" class="st1" width="21.7" height="11.6"/>
					<polygon class="st1" points="23.7,70 41,70 41,58.4 22.5,58.4 					"/>
					<rect x="50.3" y="76.7" class="st1" width="9" height="11.6"/>
					<polygon class="st1" points="48.6,88 46,87.5 47.7,76.8 50.3,77.3 					"/>
					<polygon class="st1" points="58.6,95.1 59.8,95.1 59.8,89 55.8,89 					"/>
					<polygon class="st1" points="21.2,95.1 20,95.1 20,89 24.1,89 					"/>
					<path class="st1" d="M19.3,33.3V91h41.1V33.3H19.3z M22.2,72.1h35.6v15.2H22.2L22.2,72.1z M22.2,52.9h35.6v16.4H22.2L22.2,52.9
						z M22.2,35.5h35.6v16.1H22.2L22.2,35.5z"/>
					<path class="st1" d="M19.3,89.7V91h41.1v-1.3H19.3z"/>
					<g>
						<rect x="83.1" y="40.5" class="st1" width="14.2" height="11.6"/>
						<rect x="73.3" y="40.5" class="st1" width="13.8" height="11.6"/>
						<rect x="63.2" y="58.4" class="st1" width="3.2" height="11.6"/>
						<rect x="62.6" y="76.5" class="st1" width="21.7" height="11.6"/>
						<rect x="82" y="37.5" class="st1" width="11.6" height="3.2"/>
						<rect x="71.1" y="59.4" class="st1" width="10.9" height="10.5"/>
						<polygon class="st1" points="84.2,70 86.9,69.5 84.6,57.5 81.9,58.1 						"/>
						<polygon class="st1" points="86.6,70 89.2,69.4 86.9,57.5 84.3,58 						"/>
						<rect x="84.4" y="76.7" class="st1" width="14.8" height="11.6"/>
						
							<rect x="62.6" y="62.6" transform="matrix(0.1888 -0.982 0.982 0.1888 -6.9671 119.2961)" class="st1" width="12.2" height="2.5"/>
						<polygon class="st1" points="99.6,95.1 100.9,95.1 100.9,89 96.8,89 						"/>
						<polygon class="st1" points="62.2,95.1 61,95.1 61,89 65.1,89 						"/>
						<path class="st1" d="M60.4,33.3V91h41.1V33.3H60.4z M63.2,72.1h35.6v15.2H63.2V72.1z M63.2,52.9h35.6v16.4H63.2V52.9z
							 M63.2,35.5h35.6v15.5H63.2V35.5z"/>
						<path class="st1" d="M60.4,89.7V91h41.1v-1.3H60.4z"/>
						<rect x="103.5" y="40.5" class="st1" width="16.3" height="11.6"/>
						<rect x="103.5" y="58.1" class="st1" width="16.3" height="11.6"/>
						<rect x="127.4" y="40.5" class="st1" width="13.4" height="11.6"/>
						<polygon class="st1" points="125.4,52.4 120.1,51.9 122.4,40 127.7,40.4 						"/>
						<rect x="136.5" y="58.4" class="st1" width="3.2" height="11.6"/>
						<rect x="118.6" y="76.5" class="st1" width="21.8" height="11.6"/>
						<rect x="103.5" y="76.7" class="st1" width="8.1" height="11.6"/>
						<polygon class="st1" points="113.3,88 115.9,87.5 114.3,76.8 111.6,77.3 						"/>
						<polygon class="st1" points="115.9,88 118.6,87.5 116.9,77.5 114.3,78 						"/>
						<polygon class="st1" points="103.3,95.1 102.1,95.1 102.1,89 106.1,89 						"/>
						<polygon class="st1" points="140.7,95.1 141.9,95.1 141.9,89 137.8,89 						"/>
						<path class="st1" d="M101.4,33.3V91h41.1V33.3H101.4z M139.7,87.4h-35.6V72.1h35.6L139.7,87.4z M139.7,69.3h-35.6V52.9h35.6
							L139.7,69.3z M139.7,50.9h-35.6V35.5h35.6L139.7,50.9z"/>
						<path class="st1" d="M101.4,89.7V91h41.1v-1.3H101.4z"/>
					</g>
				</g>
			</g>
			<g id="Layer_2-2">
				<g>
					<path class="st1" d="M196.1,33.2V30h10c0.9,0,1.6,0.7,1.6,1.6l0,0c0,0.9-0.7,1.6-1.6,1.6h0H196.1z"/>
					<path class="st1" d="M184.7,59v-3.2h10c0.9,0,1.6,0.7,1.6,1.6l0,0l0,0c0,0.9-0.7,1.6-1.6,1.6l0,0L184.7,59L184.7,59z"/>
					<polygon class="st1" points="184.6,52 206.6,52 206.6,40.5 185.9,40.5 					"/>
					<rect x="204.6" y="58.4" class="st1" width="13.8" height="11.6"/>
					<rect x="182.6" y="76.5" class="st1" width="21.7" height="11.6"/>
					<polygon class="st1" points="184.7,70 202,70 202,58.4 183.5,58.4 					"/>
					<rect x="211.3" y="76.7" class="st1" width="9" height="11.6"/>
					<polygon class="st1" points="209.6,88 207,87.5 208.6,76.8 211.3,77.3 					"/>
					<polygon class="st1" points="219.6,95.1 220.8,95.1 220.8,89 216.8,89 					"/>
					<polygon class="st1" points="182.2,95.1 181,95.1 181,89 185.1,89 					"/>
					<path class="st1" d="M180.3,33.3V91h41.1V33.3H180.3z M183.2,72.1h35.6v15.2h-35.6L183.2,72.1z M183.2,52.9h35.6v16.4h-35.6
						L183.2,52.9z M183.2,35.5h35.6v16.1h-35.6L183.2,35.5z"/>
					<path class="st1" d="M180.3,89.7V91h41.1v-1.3H180.3z"/>
					<g>
						<rect x="244.1" y="40.5" class="st1" width="14.2" height="11.6"/>
						<rect x="234.3" y="40.5" class="st1" width="13.8" height="11.6"/>
						<rect x="224.2" y="58.4" class="st1" width="3.2" height="11.6"/>
						<rect x="223.6" y="76.5" class="st1" width="21.7" height="11.6"/>
						<rect x="243" y="37.5" class="st1" width="11.6" height="3.2"/>
						<rect x="232.1" y="59.4" class="st1" width="10.9" height="10.5"/>
						<polygon class="st1" points="245.2,70 247.9,69.5 245.6,57.5 242.9,58.1 						"/>
						<polygon class="st1" points="247.6,70 250.2,69.4 247.9,57.5 245.3,58 						"/>
						<rect x="245.4" y="76.7" class="st1" width="14.8" height="11.6"/>
						
							<rect x="223.6" y="62.6" transform="matrix(0.1888 -0.982 0.982 0.1888 123.6326 277.3999)" class="st1" width="12.2" height="2.5"/>
						<polygon class="st1" points="260.6,95.1 261.9,95.1 261.9,89 257.8,89 						"/>
						<polygon class="st1" points="223.2,95.1 222,95.1 222,89 226.1,89 						"/>
						<path class="st1" d="M221.4,33.3V91h41.1V33.3H221.4z M224.2,72.1h35.6v15.2h-35.6V72.1z M224.2,52.9h35.6v16.4h-35.6V52.9z
							 M224.2,35.5h35.6v15.5h-35.6V35.5z"/>
						<path class="st1" d="M221.4,89.7V91h41.1v-1.3H221.4z"/>
						<rect x="264.5" y="40.5" class="st1" width="16.3" height="11.6"/>
						<rect x="288.4" y="40.5" class="st1" width="13.4" height="11.6"/>
						<polygon class="st1" points="286.4,52.4 281.1,51.9 283.4,40 288.7,40.4 						"/>
						<rect x="297.5" y="58.4" class="st1" width="3.2" height="11.6"/>
						<rect x="265.1" y="62.3" class="st1" width="14.7" height="8.8"/>
						<rect x="279.6" y="76.5" class="st1" width="21.8" height="11.6"/>
						<polygon class="st1" points="296,70 279.5,70 281.1,59.3 297.6,59.3 						"/>
						<rect x="264.5" y="76.7" class="st1" width="8.1" height="11.6"/>
						<polygon class="st1" points="274.3,88 276.9,87.5 275.3,76.8 272.6,77.3 						"/>
						<polygon class="st1" points="276.9,88 279.6,87.5 277.9,77.5 275.3,78 						"/>
						<polygon class="st1" points="264.3,95.1 263.1,95.1 263.1,89 267.1,89 						"/>
						<polygon class="st1" points="301.7,95.1 302.9,95.1 302.9,89 298.8,89 						"/>
						<path class="st1" d="M262.4,33.3V91h41.1V33.3H262.4z M300.7,87.4h-35.6V72.1h35.6L300.7,87.4z M300.7,69.3h-35.6V52.9h35.6
							L300.7,69.3z M300.7,50.9h-35.6V35.5h35.6L300.7,50.9z"/>
						<path class="st1" d="M262.4,89.7V91h41.1v-1.3H262.4z"/>
					</g>
				</g>
			</g>
		</g>
		<g>
			<g>
				<g>
					<g>
						<rect x="158" y="24.6" class="st1" width="52.6" height="76"/>
						<rect x="157.8" y="24.6" class="st2" width="52.6" height="76"/>
						<rect x="192.3" y="32.8" class="st1" width="15.4" height="16.4"/>
						
							<rect x="180.7" y="39.1" transform="matrix(0.1888 -0.982 0.982 0.1888 113.3415 219.0869)" class="st1" width="17.2" height="3.6"/>
						<rect x="161.6" y="58.2" class="st1" width="11.3" height="16.4"/>
						<rect x="205.6" y="58.2" class="st1" width="4.2" height="16.4"/>
						<rect x="179.9" y="83.7" class="st1" width="28.1" height="16.4"/>
						<rect x="183.1" y="58.2" class="st1" width="15.4" height="16.4"/>
						
							<rect x="172.1" y="63.6" transform="matrix(0.1888 -0.982 0.982 0.1888 82.4365 230.4886)" class="st1" width="17.2" height="3.6"/>
						
							<rect x="167.9" y="63.6" transform="matrix(0.1888 -0.982 0.982 0.1888 79.0299 226.3645)" class="st1" width="17.2" height="3.6"/>
						<rect x="161.6" y="84" class="st1" width="8.4" height="16.4"/>
						<polygon class="st1" points="172.4,100 175.9,99.3 173.6,84.2 170,84.9 						"/>
						<polygon class="st1" points="176.6,100 180.1,99.3 177.8,85.2 174.2,85.9 						"/>
						
							<rect x="200.5" y="56.7" transform="matrix(0.982 -0.1888 0.1888 0.982 -8.7004 39.3657)" class="st1" width="3.6" height="17.2"/>
						<polygon class="st3" points="158.3,110.1 156.5,110.1 156.5,101.4 162.3,101.4 						"/>
						<polygon class="st3" points="211.1,110.1 212.8,110.1 212.8,101.4 207.1,101.4 						"/>
						<path class="st3" d="M155.6,22.7v81.5h58.1V22.7H155.6z M209.7,100h-50.3V77.6h50.3V100z M209.7,74.5h-50.3v-24h50.3V74.5z
							 M209.7,48.5h-50.3V25.8h50.3V48.5z"/>
						<path class="st3" d="M155.6,102.4v1.8h58.1v-1.8H155.6z"/>
					</g>
					<g>
						<g>
							<path class="st4" d="M140,89.1l1.1,21l6.7-23c-0.6-4.8-5.4-18.2-5.4-18.2l-9.9,2.7L140,89.1z"/>
							<path class="st4" d="M135.1,69.9l-2.7,0.7l7.6,18.6l1,21c1.1-6.3,1.1-15.4,2.5-21.6L135.1,69.9z"/>
							<path class="st4" d="M136.4,79.7c-0.3-1.3,2-9.3,1.7-10.6l-10.3-1.8c-0.2,0-0.5-0.1-0.7-0.1l-4.1,43
								C122.9,110.1,136.6,80.5,136.4,79.7z"/>
							<path class="st4" d="M122.8,110.1l18.7-39.8l-8.2,0.2C133.2,70.4,123,109.4,122.8,110.1z"/>
							<path class="st4" d="M157.5,51.6c-1.9,0.6-5.4,2.1-7.4,2.1c0,0-2.8-7.9-5.7-10.8c-1.1-1-2.5-1.4-3.9-1.3
								c-1.6,0.4-1.6,2.4-2,3.9l4.4,11.3c1,2.3,2.5,4.3,4.4,5.9l0.9,0.2c4.6-1.8,8.8-4.2,12.6-7.3L157.5,51.6z"/>
							<g>
								<g>
									<path class="st5" d="M160.1,49.8c0.3-0.7,1.3-0.2,1.9,0.1c0.3,0.5,0,0.2,0.7,0.3c0,0,2.1-0.7,2.1-0.7c0,0,0.1,0.1,0.1,0.1
										c0.4,0.4,0.8,0.8,1.3,1.1c0.3,0.2,0.6,0.4,0.9,0.5c-0.5,1-1.1,2-2,2.7c-0.7,0.4-4.9,0.7-4.9,0.7l-1.6-0.6
										c0.5-0.8,0.7-1.7,0.3-2.6l0,0C159.5,51,159.9,50.4,160.1,49.8z"/>
									<path class="st6" d="M162.5,50.3c-1.1,0.7-2.9,0.6-2.3-0.6c0.3-0.7,3.7-0.7,4.4-0.4C164.7,49.6,163,50,162.5,50.3z"/>
									<path class="st6" d="M163.9,47.6c0.3-0.7,3.3,2.2,3.4,2.7c0.3,1-1.3,2.9-2.1,3.7c-2.5,1.2-0.9-1.4-0.9-1.4
										s-0.8-4.1-0.5-4.7L163.9,47.6z"/>
								</g>
								<g>
									<path class="st7" d="M166.5,36.1l-7.3,7.1c-0.2,0.2-0.3,0.4-0.3,0.6c-0.2,1.7-1,9-1,9c-0.2,1.3,0.6,2.6,1.8,3.1l0,0
										c0.9,0.4,1.9,0.1,2.5-0.6l7.1-8.5l0.2-0.4l1.6-8.9c0-0.2-0.1-0.4-0.3-0.5c0,0,0,0,0,0l-1.9,2.1l-1.9-0.5l0.3-2.6l-0.5-0.1
										C166.7,36,166.6,36,166.5,36.1z"/>
									<path class="st1" d="M166.9,36.5l-7.4,7.2c-0.1,0.1-0.8,8.6-0.8,8.6c-0.1,0.5-0.1,1,0,1.5c0.2,0.7,0.7,1.2,1.4,1.4
										c1.1,0.5,2.1-0.7,2.8-1.4c0.4-0.5,6-7,6.1-7.2l0.1-0.2l1.7-8.7c0-0.2-0.1-0.4-0.3-0.4c0,0,0,0,0,0l-3.3-0.9
										C167.1,36.4,167,36.4,166.9,36.5z"/>
									<path class="st8" d="M166.3,46.5c-1.5-0.7-0.6-1.5-2.3-1.6c-0.5,0-4.1-1-4.5-1.1c-0.2,1.1-0.8,8.4-0.8,8.5
										c-0.1,0.5-0.1,1,0,1.5c0.2,0.7,0.7,1.2,1.4,1.4c1.1,0.5,2.1-0.7,2.8-1.4c0.4-0.4,3.8-4.4,5.4-6.3
										C167.6,47.1,167,46.8,166.3,46.5z"/>
									<path class="st7" d="M162.2,55.3l7.1-8.5l0.2-0.4l1.6-8.9c0-0.2-0.1-0.4-0.3-0.5c0,0,0,0,0,0l-7.3,7.7
										c-0.1,0.1-0.2,0.3-0.3,0.5C163,47.1,161.9,55.6,162.2,55.3z"/>
									<g>
										<path class="st9" d="M170.8,37.1l-7.3,7.7c-0.1,0.1-0.2,0.2-0.2,0.4c0.2,0.1,0.4,0.3,0.6,0.4l0-0.1c0-0.2,0.1-0.4,0.3-0.5
											l6.9-7.3l0,0C171.2,37.4,171,37.2,170.8,37.1C170.8,37.1,170.8,37.1,170.8,37.1z"/>
										<path class="st7" d="M169.6,46.5l1.6-8.9l-6.9,7.3c-0.1,0.1-0.2,0.3-0.3,0.5c-0.2,1.4-0.9,7-1.1,9.1l6.5-7.8L169.6,46.5z"
											/>
									</g>
								</g>
								<path class="st5" d="M163.2,53.9c0.2-0.2,1-0.5,1.1-1.3c0.2-1.1-0.2-1.6-0.6-3.4c0,0,0.1-0.5,0.1-0.5
									c0.2-1.7,2.2-1.9,2.2-1.9c1,0.9,1.2,3.7,1.3,4.1c0.3,1-1.1,2.5-1.9,3.2c-0.2,0.1-0.4,0.4-0.6,0.4
									C164.7,54.4,162.6,54.5,163.2,53.9z"/>
								<path class="st5" d="M165.3,51.2L167,52l1.7-4.5l-0.3-0.1c-0.6-0.4-1.3,1.1-1.5,1.8L165.3,51.2z"/>
							</g>
							<path class="st3" d="M143.2,48.1c0.8-3.7-1.4-7.5-5.1-8.5l-0.1,0l-4.1-1.1l-3.6,0.5c-1.4,0.2-7.9,8.8-9.7,10.2l4.4,3.7
								l1.8,10.5l-0.9,2l-1.2,3.7c3,1.1,6.1,1.7,9.3,1.6c3.1,0.1,6.3-0.3,9.3-1.2L143.2,48.1z"/>
							<path class="st10" d="M139.7,70.4c1.3-0.2,2.5-0.4,3.7-0.8l-0.2-21.5c0.8-3.7-1.4-7.5-5.1-8.5l-0.1,0l-1.1-0.3
								C142.4,45.7,140.5,64.8,139.7,70.4z"/>
							<path class="st1" d="M140,42c0,1.5-2,3.1-2,3.1s-4-3-6-3.1c-1.5-0.1,1.8-2.7,4-2.7S140,40.5,140,42z"/>
							<path class="st4" d="M134.8,72.7c0,0,1-12.5,0.7-19.1c-0.1-2.6,0.5-13.5-5.5-15.5c-1.7,1.3-3.5,2.4-5.4,3.5
								c-0.9,0.5-1.5,1.4-1.4,2.5l1.8,26.6C125,70.7,128,71.1,134.8,72.7z"/>
							<path class="st4" d="M144.5,47.6c0,3.4-0.4,16.7-0.3,20.1c0,2-1,3.8-2.7,4.9c0,0,2-28-1-31l-2-2l4,2
								C143.9,43.2,144.6,45.4,144.5,47.6z"/>
							<path class="st4" d="M134,35.1c2-2,8.5,2.5,8.4,4.3c0,0-0.8,1.6-1.3,2.4L131,38.1L134,35.1z"/>
							<g>
								<path class="st11" d="M148.4,23.7c0,0,2.4,0.9,1.4,4.6s-3.1,3.4-3.1,3.4"/>
								<path class="st1" d="M136.7,42c-1.7-0.2-3.5-2.1-4-3.8c0.5-0.8,0.9-1.5,1.2-2.4l0-0.3c-3.1-2.4-4.2-6.6-2.6-10.2
									c1.7-3.5,5.4-5.7,9.3-5.5l4.1,1.6c2,0.8,2.7,2.2,3.5,4.1c1.6,3.8-2.5,10.9-4.1,13.6c-0.4,0.7-1.3,1.1-2.1,0.9
									c-0.8-0.3-1.6-0.6-2.3-0.9c-0.2,0.4-0.6,2.5-1.3,2.8L136.7,42z"/>
								<path class="st6" d="M148.7,20.2c-0.1,0.4-0.3,0.7-0.6,0.9c1.1-0.7,2.4-0.4,3.3,0.5c0.8,1,0.9,2.3,0.5,3.4
									c-1.2,3.1-4.5,1.2-6.7,0.6c-3.7-0.9-5.2,2.6-8.6,2.6l-2.1,4.7l-0.6,2.8c0-0.2-3-3.4-3.3-3.8c-1.2-2.3-2.2-7.5-1.1-9.9
									c0.4-0.9,1.3-1.4,2.3-1.1c-0.7-2.9,5.3-3.3,7-3c2.3,0.5,4.2,1.1,6.3,0c1-0.5,2.2-0.4,3,0.3
									C148.7,18.8,148.9,19.5,148.7,20.2z"/>
								<path class="st11" d="M134.9,19.2c0.2-0.4,0.5-0.8,0.7-1.2c-2.1,0.3-4.3,1.1-3.8,2.9c-0.9-0.2-1.9,0.2-2.3,1.1
									c-1.1,2.4-0.1,7.6,1.1,9.9c0.2,0.5,3.3,3.7,3.3,3.8l0.6-2.8l0.6-1.3C132.6,28.1,132.9,23,134.9,19.2z"/>
							</g>
							<g>
								<path class="st3" d="M137.6,42.1L137.6,42.1L137.6,42.1L137.6,42.1z"/>
								<path class="st3" d="M137.6,42.1C137.6,42.1,137.6,42.1,137.6,42.1C137.6,42.1,137.6,42.1,137.6,42.1L137.6,42.1L137.6,42.1
									z"/>
							</g>
						</g>
						<path class="st1" d="M136.7,29.2c0.1-0.3,0.1-0.6-0.1-0.8c-1.1-1.9-4.3-1.1-4.5,1.1c-0.1,1.8,2,3.5,3.4,4.3"/>
					</g>
				</g>
				<path class="st9" d="M115.3,80.4h16.3c0.6,0,1,0.4,1,1v19.9c0,1.1-0.9,2-2,2h-14.3c-1.1,0-2-0.9-2-2V81.4
					C114.3,80.9,114.8,80.4,115.3,80.4z"/>
				<path class="st7" d="M115.5,80.5h15.9c0.3,0,0.5,0.2,0.5,0.5v0.5c0,0.3-0.2,0.5-0.5,0.5h-15.9c-0.3,0-0.5-0.2-0.5-0.5V81
					C115,80.7,115.2,80.5,115.5,80.5z"/>
				<polygon class="st7" points="124.9,72.2 123.3,72.2 118.9,81.5 121.9,81.7 				"/>
				<polygon class="st9" points="123.6,72.2 122.1,72.2 117.7,82.5 120.2,82.8 				"/>
				<polygon class="st7" points="125.3,72.2 126.9,72.2 131.3,81.3 128.8,81.5 				"/>
				<polygon class="st9" points="124.6,72.2 126.1,72.2 130.5,82.5 128,82.8 				"/>
			</g>
			<path class="st1" d="M127.8,72.6c-0.2-0.2-0.5-0.4-0.7-0.7c-0.2-0.2-0.2-0.5-0.4-0.7c-0.3-0.5-0.7-1-1.3-1.3
				c-0.1,0-0.2-0.1-0.3-0.1c0-0.4,0.1-0.9,0.1-1.3c0.8-3.1,1-6.4,0.5-9.6c-0.4-1.1-0.6-2.3-0.5-3.4l-5.1-0.9
				c0.1,5.5,0.5,11,1.4,16.5c-0.8,0.9-1,2.1-0.5,3.2c0.9,1.9,3.4,1,4.3,0.3l-0.5-2.1c0,0,0,0,0,0c0,0,0,0,0,0c0,0,0,0,0,0l0.1,0
				c0,0,0.1,0,0.1,0c0,0,0.1,0,0.1,0c0.2,0,0.3-0.1,0.5,0c0,0,0,0,0,0c0,0,0,0,0,0c0,0,0.1,0,0.1,0c0,0,0.1,0,0.1,0c-0.1,0,0,0,0,0
				c0.1,0,0.1,0.1,0.2,0.1c0,0,0.1,0,0.1,0.1c0.1,0,0,0,0,0c0.3,0.2,0.5,0.5,0.7,0.7c0.2,0.2,0.5,0.2,0.7,0
				C128,73.1,128,72.8,127.8,72.6z"/>
			<path class="st5" d="M120.9,73.4c1.3-1.4,2.9-2.5,4.6-3.4c-0.1,0-0.2-0.1-0.3-0.1c0-0.4,0.1-0.9,0.1-1.3c0.8-3.1,1-6.4,0.5-9.6
				c-0.4-1.1-0.6-2.3-0.5-3.4l-5.1-0.9c0.1,5.5,0.5,11,1.4,16.5C121.2,71.7,120.9,72.5,120.9,73.4z"/>
			<path class="st4" d="M125.9,69.5l1.5-16.8c0,0,2.3-10.5-3.3-10.7c-4.6-0.2-6,19.1-4.4,28.6"/>
			<path class="st4" d="M130.2,38.1L130.2,38.1c1.2,2.6,2.9,4.9,4.8,6.9c-0.2-1.1,0.9-2.4,1.5-3.4c0,0-3.5-3.1-3-6.1
				C133.4,35.6,130.1,37.1,130.2,38.1z"/>
			<path class="st7" d="M128.3,85.7c0-0.1,0-0.1,0-0.2c-0.1-0.2-0.2-0.3-0.5-0.3c-2.7,0.2-5.5,0.3-8.3,0.2c-0.3,0-0.5,0.2-0.5,0.5
				c0.1,3.7,0.1,7.5,0.2,11.2c0,0.5,0,1.1,0,1.6c0,0.3,0.2,0.5,0.5,0.5c0.1,0,0.2-0.1,0.3-0.1c1.2-1.2,2.4-2.5,3.6-3.7
				c1.4,0.8,2.7,1.9,3.8,3.1c0.3,0.4,0.8,0,0.9-0.4C128.4,94,128.4,89.8,128.3,85.7z"/>
		</g>
	</g>
</g>
</svg>
